<svg width="25" height="25" viewBox="0 0 25 25" fill="none" xmlns="http://www.w3.org/2000/svg">
<rect width="25" height="25" rx="12.5" fill="#4B4850"/>
<path d="M19.125 9.3125C18.6875 9.5 18.1875 9.625 17.6875 9.6875C18.1875 9.375 18.625 8.875 18.8125 8.3125C18.3125 8.625 17.8125 8.8125 17.1875 8.9375C16.75 8.4375 16.0625 8.125 15.375 8.125C14 8.125 12.875 9.25 12.875 10.625C12.875 10.8125 12.875 11 12.9375 11.1875C10.875 11.0625 9 10.0625 7.75 8.5625C7.5625 8.9375 7.4375 9.375 7.4375 9.8125C7.4375 10.6875 7.875 11.4375 8.5625 11.875C8.125 11.875 7.75 11.75 7.4375 11.5625C7.4375 12.75 8.31249 13.8125 9.43749 14C9.24999 14.0625 9 14.0625 8.75 14.0625C8.5625 14.0625 8.4375 14.0625 8.25 14C8.5625 15 9.5 15.75 10.625 15.75C9.75 16.4375 8.6875 16.8125 7.5 16.8125C7.3125 16.8125 7.125 16.8125 6.875 16.75C8 17.4375 9.3125 17.875 10.75 17.875C15.375 17.875 17.875 14.0625 17.875 10.75V10.4375C18.375 10.25 18.8125 9.8125 19.125 9.3125Z" fill="white"/>
</svg>
