<svg width="23" height="22" viewBox="0 0 23 22" fill="none" xmlns="http://www.w3.org/2000/svg">
<path opacity="0.8" d="M0.313652 10.75C0.313652 9.49 0.523652 8.305 0.943652 7.195C1.36365 6.055 1.93365 4.975 2.65365 3.955C2.71365 3.895 2.81865 3.76 2.96865 3.55C3.14865 3.34 3.26865 3.205 3.32865 3.145C3.32865 3.055 3.34365 3.025 3.37365 3.055C3.43365 3.055 3.49365 3.025 3.55365 2.965C3.58365 2.935 3.62865 2.89 3.68865 2.83C3.77865 2.74 3.85365 2.68 3.91365 2.65C4.81365 1.81 5.84865 1.18 7.01865 0.759999C8.21865 0.339999 9.43365 0.129999 10.6637 0.129999C11.6237 0.129999 12.4787 0.279999 13.2287 0.58C13.9787 0.85 14.5937 1.435 15.0737 2.335C15.1637 2.515 15.2537 2.68 15.3437 2.83C15.4337 2.98 15.4787 3.175 15.4787 3.415C15.4787 3.565 15.4187 3.745 15.2987 3.955C15.1787 4.165 15.0287 4.375 14.8487 4.585C14.6687 4.765 14.4737 4.93 14.2637 5.08C14.0537 5.2 13.8737 5.26 13.7237 5.26C13.5737 5.26 13.4387 5.23 13.3187 5.17C13.2587 5.14 13.1387 5.065 12.9587 4.945C12.7787 4.795 12.6587 4.705 12.5987 4.675L12.5087 4.63C12.3887 4.6 12.2087 4.555 11.9687 4.495C11.7587 4.405 11.5787 4.36 11.4287 4.36C10.1987 4.36 9.17865 4.57 8.36865 4.99C7.58865 5.41 6.77865 6.085 5.93865 7.015C5.60865 7.345 5.38365 7.6 5.26365 7.78C5.17365 7.93 5.06865 8.245 4.94865 8.725C4.88865 9.055 4.81365 9.37 4.72365 9.67C4.66365 9.97 4.63365 10.285 4.63365 10.615V11.155C4.63365 11.245 4.64865 11.41 4.67865 11.65C4.73865 11.86 4.78365 12.085 4.81365 12.325C4.87365 12.565 4.91865 12.79 4.94865 13C4.97865 13.21 5.00865 13.36 5.03865 13.45C5.03865 13.51 5.03865 13.57 5.03865 13.63C5.06865 13.66 5.08365 13.69 5.08365 13.72C5.11365 13.78 5.17365 13.96 5.26365 14.26C5.38365 14.53 5.45865 14.71 5.48865 14.8C5.48865 14.83 5.50365 14.86 5.53365 14.89C5.53365 14.92 5.54865 14.95 5.57865 14.98C5.63865 15.04 5.71365 15.145 5.80365 15.295C5.92365 15.445 6.01365 15.55 6.07365 15.61C6.13365 15.7 6.17865 15.79 6.20865 15.88C6.26865 16.06 6.31365 16.15 6.34365 16.15C6.40365 16.33 6.50865 16.48 6.65865 16.6C6.83865 16.69 6.98865 16.81 7.10865 16.96L6.88365 17.05L6.97365 17.14C8.02365 17.86 8.99865 18.4 9.89865 18.76C10.8287 19.12 11.9387 19.3 13.2287 19.3C13.9187 19.3 14.6387 19.195 15.3887 18.985C16.1387 18.775 16.7687 18.415 17.2787 17.905L18.7637 16.42C18.8837 16.3 18.9437 16.195 18.9437 16.105V16.015C18.2837 15.835 17.9537 15.43 17.9537 14.8C17.9537 14.62 18.0137 14.47 18.1337 14.35C18.2837 14.2 18.4337 14.08 18.5837 13.99H18.9437C19.1837 13.99 19.3937 14.065 19.5737 14.215C19.7537 14.335 19.8587 14.395 19.8887 14.395C20.3987 13.105 20.6537 11.845 20.6537 10.615C20.6537 10.105 20.5937 9.655 20.4737 9.265C20.3837 8.845 20.2637 8.395 20.1137 7.915L20.0687 7.78C20.0387 7.66 19.9937 7.57 19.9337 7.51C19.8737 7.45 19.8137 7.36 19.7537 7.24C19.6937 7.15 19.5887 6.955 19.4387 6.655C19.2887 6.325 19.1837 6.115 19.1237 6.025C18.9437 5.905 18.8237 5.755 18.7637 5.575C18.7037 5.395 18.6737 5.2 18.6737 4.99C18.9737 4.99 19.2587 5.11 19.5287 5.35C19.8287 5.59 20.0687 5.815 20.2487 6.025C20.2787 6.085 20.3387 6.175 20.4287 6.295C20.5187 6.415 20.6237 6.55 20.7437 6.7C20.8637 6.85 20.9687 7 21.0587 7.15C21.1487 7.27 21.2237 7.36 21.2837 7.42C21.3137 7.69 21.3437 7.915 21.3737 8.095C21.4037 8.275 21.4637 8.485 21.5537 8.725L21.6437 8.815C21.6437 8.845 21.6887 8.92 21.7787 9.04C21.8687 9.13 21.9437 9.19 22.0037 9.22C22.0037 9.25 22.0187 9.295 22.0487 9.355C22.1087 9.475 22.1387 9.55 22.1387 9.58C22.1987 10 22.2587 10.42 22.3187 10.84C22.3787 11.26 22.4087 11.695 22.4087 12.145C22.4087 12.925 22.2737 13.645 22.0037 14.305C21.7337 14.935 21.4337 15.61 21.1037 16.33C20.8037 17.02 20.3837 17.65 19.8437 18.22C19.3337 18.76 18.7637 19.255 18.1337 19.705C17.5037 20.125 16.8287 20.485 16.1087 20.785C15.3887 21.085 14.6687 21.31 13.9487 21.46V21.505C13.9787 21.505 14.0237 21.505 14.0837 21.505C14.1437 21.505 14.1887 21.535 14.2187 21.595L14.1287 21.64L12.5987 22H11.7887C10.0787 22 8.44365 21.715 6.88365 21.145C5.35365 20.575 4.01865 19.66 2.87865 18.4C2.84865 18.4 2.81865 18.385 2.78865 18.355C2.75865 18.325 2.74365 18.295 2.74365 18.265C2.62365 18.055 2.50365 17.875 2.38365 17.725C2.26365 17.545 2.15865 17.35 2.06865 17.14C1.49865 16.06 1.06365 15.04 0.763652 14.08C0.463652 13.09 0.313652 11.98 0.313652 10.75ZM15.4787 4.72C15.5087 4.72 15.5387 4.705 15.5687 4.675C15.5987 4.675 15.6137 4.675 15.6137 4.675C15.6137 4.645 15.6287 4.63 15.6587 4.63C15.6887 4.63 15.7037 4.66 15.7037 4.72C15.7037 4.81 15.6887 4.87 15.6587 4.9C15.6287 4.9 15.5987 4.885 15.5687 4.855L15.4787 4.765V4.72Z" fill="#1A171F"/>
</svg>
